General

Format                           : MPEG-4
Format profile                   : Base Media
Codec ID                         : isom
File size                        : 71.3 MiB
Duration                         : 3mn 42s
Overall bit rate                 : 2 689 Kbps
Encoded date                     : UTC 2012-03-05 19:39:53
Tagged date                      : UTC 2012-03-05 19:39:53

Video
ID                               : 1
Format                           : AVC
Format/Info                      : Advanced Video Codec
Format profile                   : High@L3.0
Format settings, CABAC           : Yes
Format settings, ReFrames        : 2 frames
Codec ID                         : avc1
Codec ID/Info                    : Advanced Video Coding
Duration                         : 3mn 42s
Bit rate mode                    : Variable
Bit rate                         : 2 653 Kbps
Maximum bit rate                 : 4 916 Kbps
Width                            : 640 pixels
Height                           : 480 pixels
Display aspect ratio             : 4:3
Frame rate mode                  : Constant
Frame rate                       : 25.000 fps
Color space                      : YUV
Chroma subsampling               : 4:2:0
Bit depth                        : 8 bits
Scan type                        : Progressive
Bits/(Pixel*Frame)               : 0.345
Stream size                      : 69.2 MiB (97%)


Audio
ID                               : 2
Format                           : AAC
Format/Info                      : Advanced Audio Codec
Format profile                   : LC
Codec ID                         : 40
Duration                         : 3mn 42s
Bit rate mode                    : Variable
Bit rate                         : 69.3 Kbps
Maximum bit rate                 : 82.8 Kbps
Channel(s)                       : 2 channels
Channel positions                : Front: L R
Sampling rate                    : 44.1 KHz
Compression mode                 : Lossy
Stream size                      : 1.84 MiB (3%)


